<svg xmlns="http://www.w3.org/2000/svg" viewBox="0 0 128 128">
  <rect width="128" height="128" rx="28" fill="#114232"/>
  <path d="M36 78c9 9 21 14 35 14 10 0 19-3 27-8-6 16-22 27-41 27-17 0-31-9-39-22 3-5 9-9 18-11Z" fill="#f6d8bd"/>
  <path d="M47 42h38l-5 47H52l-5-47Z" fill="#ef6b52"/>
  <path d="M56 42c0-10 6-17 15-17s15 7 15 17" fill="none" stroke="#ffe8c8" stroke-width="7" stroke-linecap="round"/>
  <path d="M36 59c-11 1-20 7-25 16 11 0 20-3 28-10l-3-6Zm56 0c11 1 20 7 25 16-11 0-20-3-28-10l3-6Z" fill="#fff6de"/>
</svg>
