<svg xmlns="http://www.w3.org/2000/svg" width="1200" height="630" viewBox="0 0 1200 630">
  <defs>
    <linearGradient id="bg" x1="0" y1="0" x2="1" y2="1">
      <stop offset="0%" stop-color="#fffdf7"/>
      <stop offset="52%" stop-color="#f3f7eb"/>
      <stop offset="100%" stop-color="#f7d4bf"/>
    </linearGradient>
    <linearGradient id="panel" x1="0" y1="0" x2="1" y2="1">
      <stop offset="0%" stop-color="#114232"/>
      <stop offset="100%" stop-color="#1c6048"/>
    </linearGradient>
    <filter id="shadow" x="-20%" y="-20%" width="140%" height="140%">
      <feDropShadow dx="0" dy="26" stdDeviation="28" flood-color="#114232" flood-opacity="0.22"/>
    </filter>
  </defs>
  <rect width="1200" height="630" fill="url(#bg)"/>
  <circle cx="1060" cy="92" r="210" fill="#f1c96b" opacity="0.22"/>
  <circle cx="96" cy="540" r="250" fill="#7e9b3a" opacity="0.16"/>
  <rect x="86" y="72" width="1028" height="486" rx="46" fill="url(#panel)" filter="url(#shadow)"/>
  <circle cx="1002" cy="487" r="170" fill="#f7d4bf" opacity="0.76"/>
  <g transform="translate(130 136)">
    <rect width="132" height="132" rx="30" fill="#0f3f2f"/>
    <path d="M36 84c11 11 25 17 41 17 12 0 22-3 31-9-7 18-25 31-47 31-20 0-36-10-45-25 4-7 11-12 20-14Z" fill="#f6d8bd"/>
    <path d="M48 45h38l-5 47H53l-5-47Z" fill="#ef6b52"/>
    <path d="M56 45c0-10 6-17 15-17s15 7 15 17" fill="none" stroke="#ffe8c8" stroke-width="7" stroke-linecap="round"/>
    <path d="M35 64c-11 1-20 7-25 16 11 0 20-3 28-10l-3-6Zm56 0c11 1 20 7 25 16-11 0-20-3-28-10l3-6Z" fill="#fff6de"/>
  </g>
  <text x="130" y="335" fill="#ffffff" font-family="-apple-system, BlinkMacSystemFont, 'Hiragino Sans', 'Yu Gothic', sans-serif" font-size="92" font-weight="800" letter-spacing="0">CodePocket</text>
  <text x="134" y="410" fill="#e8f5be" font-family="-apple-system, BlinkMacSystemFont, 'Hiragino Sans', 'Yu Gothic', sans-serif" font-size="40" font-weight="700" letter-spacing="0">開発メモとコードを、あとで見つかる形に。</text>
  <text x="136" y="474" fill="#ffffff" opacity="0.76" font-family="-apple-system, BlinkMacSystemFont, 'Hiragino Sans', 'Yu Gothic', sans-serif" font-size="27" font-weight="600" letter-spacing="0">カード・ボックス・端末内保存で、短いメモをすぐ整理。</text>
  <g transform="translate(830 102) rotate(4)">
    <rect width="214" height="464" rx="34" fill="#0b1112"/>
    <rect x="10" y="10" width="194" height="444" rx="25" fill="#fbfbf6"/>
    <rect x="34" y="52" width="146" height="32" rx="16" fill="#eaf1df"/>
    <rect x="28" y="110" width="158" height="82" rx="18" fill="#ffffff"/>
    <rect x="46" y="132" width="104" height="12" rx="6" fill="#114232"/>
    <rect x="46" y="156" width="76" height="10" rx="5" fill="#d9e5cb"/>
    <rect x="28" y="214" width="158" height="82" rx="18" fill="#ffffff"/>
    <rect x="46" y="236" width="116" height="12" rx="6" fill="#114232"/>
    <rect x="46" y="260" width="88" height="10" rx="5" fill="#d9e5cb"/>
    <rect x="28" y="318" width="158" height="82" rx="18" fill="#ffffff"/>
    <rect x="46" y="340" width="92" height="12" rx="6" fill="#114232"/>
    <rect x="46" y="364" width="112" height="10" rx="5" fill="#d9e5cb"/>
  </g>
</svg>
